<svg width="122" height="137" viewBox="0 0 122 137" fill="none" xmlns="http://www.w3.org/2000/svg">
<path d="M0.751721 82.008H23.2517V49.008C23.2517 42.508 30.2517 42.008 30.2517 49.008V82.008H52.7517V49.008C52.7517 42.508 59.7517 42.008 59.7517 49.008V82.008H82.7517V44.0078V43.5195C82.7383 42.5009 82.6417 41.4691 82.4687 40.4335C79.6142 23.9408 55.9618 13.6376 41.75 30.0071C26.536 12.4833 0.506446 25.5268 0.751721 44.008V82.008Z" fill="#FEFEFE"/>
<path d="M59.75 0.741455H82.75V22.1187V44.7415C82.75 28.2415 69.75 17.4829 59.75 17.4829V0.741455Z" fill="#FEFEFE"/>
<path d="M93.25 22.7415L83.75 44.2415L96.75 81.7415H121.25L106.25 44.2415L116.25 22.7415H93.25Z" fill="#FEFEFE"/>
<path d="M7.7572 127.296C8.7112 127.296 9.5602 127.128 10.3042 126.792C11.0482 126.456 11.6332 125.97 12.0592 125.334C12.4912 124.692 12.7072 123.918 12.7072 123.012C12.7072 122.34 12.5872 121.767 12.3472 121.293C12.1132 120.819 11.7892 120.414 11.3752 120.078C10.9612 119.736 10.4812 119.439 9.9352 119.187C9.3892 118.929 8.8102 118.68 8.1982 118.44C7.7422 118.266 7.3072 118.086 6.8932 117.9C6.4792 117.708 6.1402 117.462 5.8762 117.162C5.6122 116.862 5.4802 116.463 5.4802 115.965C5.4802 115.551 5.5822 115.161 5.7862 114.795C5.9902 114.429 6.2842 114.132 6.6682 113.904C7.0582 113.67 7.5322 113.553 8.0902 113.553C8.7742 113.553 9.3862 113.709 9.9262 114.021C10.4662 114.327 10.8832 114.675 11.1772 115.065L12.0322 113.724C11.7922 113.418 11.4712 113.127 11.0692 112.851C10.6672 112.569 10.2082 112.338 9.6922 112.158C9.1822 111.978 8.6392 111.888 8.0632 111.888C7.2052 111.888 6.4492 112.077 5.7952 112.455C5.1412 112.833 4.6312 113.334 4.2652 113.958C3.8992 114.582 3.7162 115.26 3.7162 115.992C3.7162 116.718 3.8842 117.321 4.2202 117.801C4.5622 118.281 4.9852 118.671 5.4892 118.971C5.9992 119.271 6.5002 119.52 6.9922 119.718C7.6942 119.994 8.3302 120.267 8.9002 120.537C9.4702 120.807 9.9202 121.137 10.2502 121.527C10.5862 121.911 10.7542 122.421 10.7542 123.057C10.7542 123.615 10.6192 124.083 10.3492 124.461C10.0852 124.839 9.7312 125.124 9.2872 125.316C8.8432 125.508 8.3482 125.604 7.8022 125.604C7.2262 125.604 6.7102 125.514 6.2542 125.334C5.7982 125.154 5.3992 124.932 5.0572 124.668C4.7152 124.404 4.4272 124.14 4.1932 123.876C3.9592 123.612 3.7732 123.396 3.6352 123.228L2.6362 124.65C2.7622 124.818 2.9602 125.049 3.2302 125.343C3.5002 125.631 3.8452 125.925 4.2652 126.225C4.6852 126.525 5.1862 126.78 5.7682 126.99C6.3502 127.194 7.0132 127.296 7.7572 127.296ZM22.8163 127.296C23.8543 127.296 24.8263 127.098 25.7323 126.702C26.6383 126.306 27.4333 125.757 28.1173 125.055C28.8013 124.347 29.3353 123.528 29.7193 122.598C30.1093 121.662 30.3043 120.66 30.3043 119.592C30.3043 118.518 30.1093 117.516 29.7193 116.586C29.3353 115.656 28.8013 114.84 28.1173 114.138C27.4333 113.43 26.6383 112.878 25.7323 112.482C24.8263 112.086 23.8543 111.888 22.8163 111.888C21.7783 111.888 20.8063 112.086 19.9003 112.482C18.9943 112.878 18.1993 113.43 17.5153 114.138C16.8313 114.84 16.2943 115.656 15.9043 116.586C15.5203 117.516 15.3283 118.518 15.3283 119.592C15.3283 120.66 15.5203 121.662 15.9043 122.598C16.2943 123.528 16.8313 124.347 17.5153 125.055C18.1993 125.757 18.9943 126.306 19.9003 126.702C20.8063 127.098 21.7783 127.296 22.8163 127.296ZM22.8163 125.532C22.0363 125.532 21.3103 125.382 20.6383 125.082C19.9723 124.782 19.3873 124.365 18.8833 123.831C18.3853 123.291 17.9953 122.661 17.7133 121.941C17.4373 121.215 17.2993 120.432 17.2993 119.592C17.2993 118.752 17.4373 117.972 17.7133 117.252C17.9953 116.526 18.3853 115.896 18.8833 115.362C19.3873 114.822 19.9723 114.402 20.6383 114.102C21.3103 113.802 22.0363 113.652 22.8163 113.652C23.5963 113.652 24.3193 113.802 24.9853 114.102C25.6573 114.402 26.2423 114.822 26.7403 115.362C27.2443 115.896 27.6343 116.526 27.9103 117.252C28.1923 117.972 28.3333 118.752 28.3333 119.592C28.3333 120.432 28.1923 121.215 27.9103 121.941C27.6343 122.661 27.2443 123.291 26.7403 123.831C26.2423 124.365 25.6573 124.782 24.9853 125.082C24.3193 125.382 23.5963 125.532 22.8163 125.532ZM33.9573 127.008H41.7513V125.397H35.7843V112.158H33.9573V127.008ZM49.9228 127.296C53.4568 127.296 55.2238 125.433 55.2238 121.707V112.158H53.3878V121.248C53.3878 122.694 53.1028 123.765 52.5328 124.461C51.9688 125.151 51.0988 125.496 49.9228 125.496C48.7468 125.496 47.8738 125.151 47.3038 124.461C46.7398 123.765 46.4578 122.694 46.4578 121.248V112.158H44.6308V121.707C44.6308 125.433 46.3948 127.296 49.9228 127.296ZM61.5505 127.008H63.3775V113.796H67.6885V112.158H57.2485V113.796H61.5505V127.008ZM70.8011 127.008H72.6281V112.158H70.8011V127.008ZM83.7597 127.296C84.7977 127.296 85.7697 127.098 86.6757 126.702C87.5817 126.306 88.3767 125.757 89.0607 125.055C89.7447 124.347 90.2787 123.528 90.6627 122.598C91.0527 121.662 91.2477 120.66 91.2477 119.592C91.2477 118.518 91.0527 117.516 90.6627 116.586C90.2787 115.656 89.7447 114.84 89.0607 114.138C88.3767 113.43 87.5817 112.878 86.6757 112.482C85.7697 112.086 84.7977 111.888 83.7597 111.888C82.7217 111.888 81.7497 112.086 80.8437 112.482C79.9377 112.878 79.1427 113.43 78.4587 114.138C77.7747 114.84 77.2377 115.656 76.8477 116.586C76.4637 117.516 76.2717 118.518 76.2717 119.592C76.2717 120.66 76.4637 121.662 76.8477 122.598C77.2377 123.528 77.7747 124.347 78.4587 125.055C79.1427 125.757 79.9377 126.306 80.8437 126.702C81.7497 127.098 82.7217 127.296 83.7597 127.296ZM83.7597 125.532C82.9797 125.532 82.2537 125.382 81.5817 125.082C80.9157 124.782 80.3307 124.365 79.8267 123.831C79.3287 123.291 78.9387 122.661 78.6567 121.941C78.3807 121.215 78.2427 120.432 78.2427 119.592C78.2427 118.752 78.3807 117.972 78.6567 117.252C78.9387 116.526 79.3287 115.896 79.8267 115.362C80.3307 114.822 80.9157 114.402 81.5817 114.102C82.2537 113.802 82.9797 113.652 83.7597 113.652C84.5397 113.652 85.2627 113.802 85.9287 114.102C86.6007 114.402 87.1857 114.822 87.6837 115.362C88.1877 115.896 88.5777 116.526 88.8537 117.252C89.1357 117.972 89.2767 118.752 89.2767 119.592C89.2767 120.432 89.1357 121.215 88.8537 121.941C88.5777 122.661 88.1877 123.291 87.6837 123.831C87.1857 124.365 86.6007 124.782 85.9287 125.082C85.2627 125.382 84.5397 125.532 83.7597 125.532ZM94.9007 127.008H96.7277V115.254L104.234 127.008H106.061V112.158H104.234V123.921L96.7277 112.158H94.9007V127.008ZM114.07 127.296C115.024 127.296 115.873 127.128 116.617 126.792C117.361 126.456 117.946 125.97 118.372 125.334C118.804 124.692 119.02 123.918 119.02 123.012C119.02 122.34 118.9 121.767 118.66 121.293C118.426 120.819 118.102 120.414 117.688 120.078C117.274 119.736 116.794 119.439 116.248 119.187C115.702 118.929 115.123 118.68 114.511 118.44C114.055 118.266 113.62 118.086 113.206 117.9C112.792 117.708 112.453 117.462 112.189 117.162C111.925 116.862 111.793 116.463 111.793 115.965C111.793 115.551 111.895 115.161 112.099 114.795C112.303 114.429 112.597 114.132 112.981 113.904C113.371 113.67 113.845 113.553 114.403 113.553C115.087 113.553 115.699 113.709 116.239 114.021C116.779 114.327 117.196 114.675 117.49 115.065L118.345 113.724C118.105 113.418 117.784 113.127 117.382 112.851C116.98 112.569 116.521 112.338 116.005 112.158C115.495 111.978 114.952 111.888 114.376 111.888C113.518 111.888 112.762 112.077 112.108 112.455C111.454 112.833 110.944 113.334 110.578 113.958C110.212 114.582 110.029 115.26 110.029 115.992C110.029 116.718 110.197 117.321 110.533 117.801C110.875 118.281 111.298 118.671 111.802 118.971C112.312 119.271 112.813 119.52 113.305 119.718C114.007 119.994 114.643 120.267 115.213 120.537C115.783 120.807 116.233 121.137 116.563 121.527C116.899 121.911 117.067 122.421 117.067 123.057C117.067 123.615 116.932 124.083 116.662 124.461C116.398 124.839 116.044 125.124 115.6 125.316C115.156 125.508 114.661 125.604 114.115 125.604C113.539 125.604 113.023 125.514 112.567 125.334C112.111 125.154 111.712 124.932 111.37 124.668C111.028 124.404 110.74 124.14 110.506 123.876C110.272 123.612 110.086 123.396 109.948 123.228L108.949 124.65C109.075 124.818 109.273 125.049 109.543 125.343C109.813 125.631 110.158 125.925 110.578 126.225C110.998 126.525 111.499 126.78 112.081 126.99C112.663 127.194 113.326 127.296 114.07 127.296Z" fill="#FEFEFE"/>
</svg>
