<svg width="150" height="150" viewBox="0 0 150 150" fill="none" xmlns="http://www.w3.org/2000/svg">
<rect width="150" height="150" rx="75" fill="#29589D"/>
<path d="M34.0012 95.9761H49.4991V73.2459C49.4991 68.7687 54.3207 68.4243 54.3207 73.2459V95.9761H69.8186V73.2459C69.8186 68.7687 74.6402 68.4243 74.6402 73.2459V95.9761H90.4825V69.8017V69.4653C90.4733 68.7637 90.4067 68.053 90.2876 67.3397C88.3214 55.9796 72.0297 48.8828 62.2407 60.158C51.7613 48.0877 33.8322 57.072 34.0012 69.8019V95.9761Z" fill="#FEFEFE"/>
<path d="M74.6387 40H90.481V54.7246V70.3071C90.481 58.9419 81.5266 51.5315 74.6387 51.5315V40Z" fill="#FEFEFE"/>
<path d="M97.7135 55.1536L91.1699 69.9627L100.124 95.7926H117L106.668 69.9627L113.556 55.1536H97.7135Z" fill="#FEFEFE"/>
</svg>
