<svg width="414" height="896" viewBox="0 0 414 896" fill="none" xmlns="http://www.w3.org/2000/svg">
<rect width="414" height="896" fill="#29589D"/>
<path d="M146.752 462.008H169.252V429.008C169.252 422.508 176.252 422.008 176.252 429.008V462.008H198.752V429.008C198.752 422.508 205.752 422.008 205.752 429.008V462.008H228.752V424.008V423.519C228.738 422.501 228.642 421.469 228.469 420.434C225.614 403.941 201.962 393.638 187.75 410.007C172.536 392.483 146.506 405.527 146.752 424.008V462.008Z" fill="#FEFEFE"/>
<path d="M205.75 380.741H228.75V402.119V424.741C228.75 408.241 215.75 397.483 205.75 397.483V380.741Z" fill="#FEFEFE"/>
<path d="M239.25 402.741L229.75 424.241L242.75 461.741H267.25L252.25 424.241L262.25 402.741H239.25Z" fill="#FEFEFE"/>
<path d="M153.757 507.296C154.711 507.296 155.56 507.128 156.304 506.792C157.048 506.456 157.633 505.97 158.059 505.334C158.491 504.692 158.707 503.918 158.707 503.012C158.707 502.34 158.587 501.767 158.347 501.293C158.113 500.819 157.789 500.414 157.375 500.078C156.961 499.736 156.481 499.439 155.935 499.187C155.389 498.929 154.81 498.68 154.198 498.44C153.742 498.266 153.307 498.086 152.893 497.9C152.479 497.708 152.14 497.462 151.876 497.162C151.612 496.862 151.48 496.463 151.48 495.965C151.48 495.551 151.582 495.161 151.786 494.795C151.99 494.429 152.284 494.132 152.668 493.904C153.058 493.67 153.532 493.553 154.09 493.553C154.774 493.553 155.386 493.709 155.926 494.021C156.466 494.327 156.883 494.675 157.177 495.065L158.032 493.724C157.792 493.418 157.471 493.127 157.069 492.851C156.667 492.569 156.208 492.338 155.692 492.158C155.182 491.978 154.639 491.888 154.063 491.888C153.205 491.888 152.449 492.077 151.795 492.455C151.141 492.833 150.631 493.334 150.265 493.958C149.899 494.582 149.716 495.26 149.716 495.992C149.716 496.718 149.884 497.321 150.22 497.801C150.562 498.281 150.985 498.671 151.489 498.971C151.999 499.271 152.5 499.52 152.992 499.718C153.694 499.994 154.33 500.267 154.9 500.537C155.47 500.807 155.92 501.137 156.25 501.527C156.586 501.911 156.754 502.421 156.754 503.057C156.754 503.615 156.619 504.083 156.349 504.461C156.085 504.839 155.731 505.124 155.287 505.316C154.843 505.508 154.348 505.604 153.802 505.604C153.226 505.604 152.71 505.514 152.254 505.334C151.798 505.154 151.399 504.932 151.057 504.668C150.715 504.404 150.427 504.14 150.193 503.876C149.959 503.612 149.773 503.396 149.635 503.228L148.636 504.65C148.762 504.818 148.96 505.049 149.23 505.343C149.5 505.631 149.845 505.925 150.265 506.225C150.685 506.525 151.186 506.78 151.768 506.99C152.35 507.194 153.013 507.296 153.757 507.296ZM168.816 507.296C169.854 507.296 170.826 507.098 171.732 506.702C172.638 506.306 173.433 505.757 174.117 505.055C174.801 504.347 175.335 503.528 175.719 502.598C176.109 501.662 176.304 500.66 176.304 499.592C176.304 498.518 176.109 497.516 175.719 496.586C175.335 495.656 174.801 494.84 174.117 494.138C173.433 493.43 172.638 492.878 171.732 492.482C170.826 492.086 169.854 491.888 168.816 491.888C167.778 491.888 166.806 492.086 165.9 492.482C164.994 492.878 164.199 493.43 163.515 494.138C162.831 494.84 162.294 495.656 161.904 496.586C161.52 497.516 161.328 498.518 161.328 499.592C161.328 500.66 161.52 501.662 161.904 502.598C162.294 503.528 162.831 504.347 163.515 505.055C164.199 505.757 164.994 506.306 165.9 506.702C166.806 507.098 167.778 507.296 168.816 507.296ZM168.816 505.532C168.036 505.532 167.31 505.382 166.638 505.082C165.972 504.782 165.387 504.365 164.883 503.831C164.385 503.291 163.995 502.661 163.713 501.941C163.437 501.215 163.299 500.432 163.299 499.592C163.299 498.752 163.437 497.972 163.713 497.252C163.995 496.526 164.385 495.896 164.883 495.362C165.387 494.822 165.972 494.402 166.638 494.102C167.31 493.802 168.036 493.652 168.816 493.652C169.596 493.652 170.319 493.802 170.985 494.102C171.657 494.402 172.242 494.822 172.74 495.362C173.244 495.896 173.634 496.526 173.91 497.252C174.192 497.972 174.333 498.752 174.333 499.592C174.333 500.432 174.192 501.215 173.91 501.941C173.634 502.661 173.244 503.291 172.74 503.831C172.242 504.365 171.657 504.782 170.985 505.082C170.319 505.382 169.596 505.532 168.816 505.532ZM179.957 507.008H187.751V505.397H181.784V492.158H179.957V507.008ZM195.923 507.296C199.457 507.296 201.224 505.433 201.224 501.707V492.158H199.388V501.248C199.388 502.694 199.103 503.765 198.533 504.461C197.969 505.151 197.099 505.496 195.923 505.496C194.747 505.496 193.874 505.151 193.304 504.461C192.74 503.765 192.458 502.694 192.458 501.248V492.158H190.631V501.707C190.631 505.433 192.395 507.296 195.923 507.296ZM207.55 507.008H209.377V493.796H213.688V492.158H203.248V493.796H207.55V507.008ZM216.801 507.008H218.628V492.158H216.801V507.008ZM229.76 507.296C230.798 507.296 231.77 507.098 232.676 506.702C233.582 506.306 234.377 505.757 235.061 505.055C235.745 504.347 236.279 503.528 236.663 502.598C237.053 501.662 237.248 500.66 237.248 499.592C237.248 498.518 237.053 497.516 236.663 496.586C236.279 495.656 235.745 494.84 235.061 494.138C234.377 493.43 233.582 492.878 232.676 492.482C231.77 492.086 230.798 491.888 229.76 491.888C228.722 491.888 227.75 492.086 226.844 492.482C225.938 492.878 225.143 493.43 224.459 494.138C223.775 494.84 223.238 495.656 222.848 496.586C222.464 497.516 222.272 498.518 222.272 499.592C222.272 500.66 222.464 501.662 222.848 502.598C223.238 503.528 223.775 504.347 224.459 505.055C225.143 505.757 225.938 506.306 226.844 506.702C227.75 507.098 228.722 507.296 229.76 507.296ZM229.76 505.532C228.98 505.532 228.254 505.382 227.582 505.082C226.916 504.782 226.331 504.365 225.827 503.831C225.329 503.291 224.939 502.661 224.657 501.941C224.381 501.215 224.243 500.432 224.243 499.592C224.243 498.752 224.381 497.972 224.657 497.252C224.939 496.526 225.329 495.896 225.827 495.362C226.331 494.822 226.916 494.402 227.582 494.102C228.254 493.802 228.98 493.652 229.76 493.652C230.54 493.652 231.263 493.802 231.929 494.102C232.601 494.402 233.186 494.822 233.684 495.362C234.188 495.896 234.578 496.526 234.854 497.252C235.136 497.972 235.277 498.752 235.277 499.592C235.277 500.432 235.136 501.215 234.854 501.941C234.578 502.661 234.188 503.291 233.684 503.831C233.186 504.365 232.601 504.782 231.929 505.082C231.263 505.382 230.54 505.532 229.76 505.532ZM240.901 507.008H242.728V495.254L250.234 507.008H252.061V492.158H250.234V503.921L242.728 492.158H240.901V507.008ZM260.07 507.296C261.024 507.296 261.873 507.128 262.617 506.792C263.361 506.456 263.946 505.97 264.372 505.334C264.804 504.692 265.02 503.918 265.02 503.012C265.02 502.34 264.9 501.767 264.66 501.293C264.426 500.819 264.102 500.414 263.688 500.078C263.274 499.736 262.794 499.439 262.248 499.187C261.702 498.929 261.123 498.68 260.511 498.44C260.055 498.266 259.62 498.086 259.206 497.9C258.792 497.708 258.453 497.462 258.189 497.162C257.925 496.862 257.793 496.463 257.793 495.965C257.793 495.551 257.895 495.161 258.099 494.795C258.303 494.429 258.597 494.132 258.981 493.904C259.371 493.67 259.845 493.553 260.403 493.553C261.087 493.553 261.699 493.709 262.239 494.021C262.779 494.327 263.196 494.675 263.49 495.065L264.345 493.724C264.105 493.418 263.784 493.127 263.382 492.851C262.98 492.569 262.521 492.338 262.005 492.158C261.495 491.978 260.952 491.888 260.376 491.888C259.518 491.888 258.762 492.077 258.108 492.455C257.454 492.833 256.944 493.334 256.578 493.958C256.212 494.582 256.029 495.26 256.029 495.992C256.029 496.718 256.197 497.321 256.533 497.801C256.875 498.281 257.298 498.671 257.802 498.971C258.312 499.271 258.813 499.52 259.305 499.718C260.007 499.994 260.643 500.267 261.213 500.537C261.783 500.807 262.233 501.137 262.563 501.527C262.899 501.911 263.067 502.421 263.067 503.057C263.067 503.615 262.932 504.083 262.662 504.461C262.398 504.839 262.044 505.124 261.6 505.316C261.156 505.508 260.661 505.604 260.115 505.604C259.539 505.604 259.023 505.514 258.567 505.334C258.111 505.154 257.712 504.932 257.37 504.668C257.028 504.404 256.74 504.14 256.506 503.876C256.272 503.612 256.086 503.396 255.948 503.228L254.949 504.65C255.075 504.818 255.273 505.049 255.543 505.343C255.813 505.631 256.158 505.925 256.578 506.225C256.998 506.525 257.499 506.78 258.081 506.99C258.663 507.194 259.326 507.296 260.07 507.296Z" fill="#FEFEFE"/>
</svg>
